<?xml version="1.0" standalone="no"?>
<!DOCTYPE svg PUBLIC "-//W3C//DTD SVG 20010904//EN"
 "http://www.w3.org/TR/2001/REC-SVG-20010904/DTD/svg10.dtd">
<svg version="1.0" xmlns="http://www.w3.org/2000/svg"
 width="982.000000pt" height="982.000000pt" viewBox="0 0 982.000000 982.000000"
 preserveAspectRatio="xMidYMid meet">
<metadata>
Created by potrace 1.11, written by Peter Selinger 2001-2013
</metadata>
<g transform="translate(0.000000,982.000000) scale(0.100000,-0.100000)"
fill="#000000" stroke="none">
<path d="M760 5040 l0 -1930 1135 0 1135 0 0 215 0 215 -895 0 -895 0 0 1715
0 1715 -240 0 -240 0 0 -1930z"/>
<path d="M3070 5040 l0 -1930 240 0 240 0 2 1537 3 1536 135 -184 c74 -101
254 -348 400 -549 270 -370 315 -431 1070 -1465 233 -319 471 -646 529 -727
l106 -147 233 -1 232 0 0 1930 0 1930 -240 0 -240 0 -2 -1506 -3 -1506 -35 48
c-34 49 -234 321 -700 954 -136 184 -399 542 -585 795 -186 253 -377 512 -424
576 -47 65 -171 234 -276 377 l-190 261 -247 0 -248 1 0 -1930z"/>
<path d="M6300 5040 l0 -1930 240 0 240 0 0 765 0 765 389 0 388 0 159 -247
c87 -137 221 -347 299 -468 78 -121 226 -354 330 -517 l190 -298 283 0 c236 0
282 2 275 14 -4 7 -157 238 -340 512 -509 766 -690 1039 -689 1041 1 1 42 9
93 17 472 82 799 403 889 874 23 116 23 345 0 471 -85 480 -419 808 -923 908
-79 15 -180 17 -955 20 l-868 4 0 -1931z m1672 1486 c387 -75 618 -373 595
-769 -7 -116 -26 -195 -68 -283 -89 -188 -255 -323 -475 -385 -77 -22 -94 -23
-661 -26 l-583 -4 0 740 0 741 559 0 c441 0 575 -3 633 -14z"/>
</g>
</svg>
