<?xml version="1.0" standalone="no"?>
<!DOCTYPE svg PUBLIC "-//W3C//DTD SVG 20010904//EN"
 "http://www.w3.org/TR/2001/REC-SVG-20010904/DTD/svg10.dtd">
<svg version="1.0" xmlns="http://www.w3.org/2000/svg"
 width="835.000000pt" height="835.000000pt" viewBox="0 0 835.000000 835.000000"
 preserveAspectRatio="xMidYMid meet">
<metadata>
Created by potrace 1.11, written by Peter Selinger 2001-2013
</metadata>
<g transform="translate(0.000000,835.000000) scale(0.100000,-0.100000)"
fill="#000000" stroke="none">
<path d="M420 4105 l0 -1915 1038 2 1037 3 1 25 c0 14 4 32 9 39 5 8 4 12 -1
8 -5 -3 -8 69 -7 173 1 168 0 178 -18 183 -10 3 -21 2 -23 -1 -2 -4 -363 -6
-803 -4 l-798 2 1 1700 1 1700 -219 0 -218 0 0 -1915z"/>
<path d="M2537 6013 c-2 -5 -3 -865 -3 -1913 l1 -1905 219 0 220 0 0 1517 c0
834 4 1514 8 1512 5 -3 45 -60 90 -127 45 -67 84 -124 87 -127 3 -3 12 -17 20
-32 8 -15 22 -37 33 -47 10 -11 18 -24 18 -28 0 -5 13 -24 30 -43 16 -19 29
-38 30 -42 0 -4 27 -46 60 -93 33 -47 60 -90 60 -95 0 -4 4 -10 8 -12 4 -1 35
-43 68 -93 34 -49 117 -172 185 -273 68 -100 129 -192 135 -202 6 -11 18 -28
27 -38 10 -10 17 -23 17 -29 0 -6 3 -13 8 -15 11 -5 92 -125 92 -136 0 -6 4
-12 8 -14 9 -3 219 -309 256 -372 10 -17 21 -33 25 -36 3 -3 11 -13 16 -22 18
-30 277 -412 312 -460 19 -27 31 -48 27 -48 -4 0 -1 -6 8 -12 9 -7 53 -69 98
-138 46 -69 88 -128 94 -132 6 -4 7 -8 3 -8 -5 0 5 -17 21 -37 16 -21 61 -86
100 -146 39 -59 78 -114 86 -122 8 -8 18 -24 21 -35 6 -20 14 -20 218 -18
l212 3 1 1913 1 1912 -218 0 c-168 0 -219 -3 -220 -12 -5 -73 -2 -2800 3
-2820 3 -15 3 -30 -1 -32 -4 -3 -6 -31 -4 -62 1 -32 -1 -54 -6 -48 -12 14
-227 329 -247 364 -10 16 -22 30 -26 30 -4 0 -8 4 -8 10 0 11 -62 103 -72 108
-5 2 -8 10 -8 18 0 8 -4 14 -10 14 -5 0 -10 6 -10 14 0 8 -4 16 -8 18 -4 2
-70 95 -147 208 -76 113 -142 207 -147 208 -4 2 -6 8 -2 13 3 5 0 9 -5 9 -6 0
-11 7 -11 15 0 8 -4 15 -10 15 -5 0 -10 6 -10 14 0 8 -4 16 -8 18 -10 4 -102
137 -102 148 0 4 -3 10 -8 12 -7 3 -110 151 -137 196 -5 9 -13 19 -16 22 -3 3
-38 55 -79 115 -40 61 -77 112 -82 113 -4 2 -8 8 -8 12 0 9 -31 55 -154 233
-34 48 -68 98 -76 111 -55 84 -74 111 -81 114 -5 2 -9 9 -9 16 0 7 -8 21 -17
32 -10 10 -37 48 -61 84 -23 36 -49 75 -58 87 -22 31 -251 366 -337 495 l-72
108 -222 0 c-122 0 -224 -3 -226 -7z"/>
<path d="M5505 4105 l0 -1915 220 0 220 0 0 760 c-1 516 3 760 10 761 5 1 164
2 353 3 l343 1 62 -105 c34 -58 65 -107 69 -108 5 -2 6 -8 2 -13 -3 -5 0 -9 5
-9 6 0 11 -4 11 -9 0 -8 142 -256 190 -331 26 -42 73 -125 71 -128 -1 -1 3 -8
9 -15 14 -16 88 -139 148 -247 14 -25 29 -46 34 -48 4 -2 8 -8 8 -14 0 -8 46
-90 100 -178 38 -62 165 -279 174 -297 11 -23 12 -23 269 -23 141 0 257 3 257
8 0 4 -10 23 -22 42 -37 59 -57 94 -75 128 -9 17 -20 32 -25 32 -4 0 -8 7 -8
15 0 8 -5 15 -11 15 -5 0 -8 4 -5 8 3 5 -4 19 -15 30 -11 12 -17 22 -13 22 4
0 0 8 -8 18 -12 13 -150 237 -221 357 -7 11 -23 38 -37 60 -14 22 -30 49 -37
60 -74 125 -129 211 -136 216 -5 3 -8 10 -8 15 1 5 -6 17 -14 27 -8 9 -15 20
-15 22 0 3 -22 42 -50 86 -27 44 -50 83 -50 85 0 3 -5 10 -10 17 -32 37 -179
292 -173 298 5 4 26 9 48 12 65 9 96 17 170 43 39 14 76 26 83 26 6 1 12 5 12
10 0 4 9 8 20 8 11 0 20 3 20 8 0 4 23 18 50 31 28 14 50 28 50 32 0 4 8 10
18 13 10 3 35 22 55 41 20 19 42 35 47 35 6 0 10 3 10 8 0 4 19 26 41 50 49
51 117 148 151 217 28 56 77 177 84 206 2 11 6 29 9 42 3 12 7 33 10 47 3 14
7 36 10 50 12 59 18 152 16 250 -2 101 -6 175 -10 175 -1 0 -4 16 -6 35 -15
145 -79 318 -170 460 -35 54 -121 158 -153 183 -12 10 -28 24 -35 30 -20 20
-95 77 -100 77 -2 0 -31 16 -63 35 -57 34 -187 89 -235 99 -13 3 -51 10 -84
17 -33 6 -67 15 -76 19 -9 5 -371 9 -805 10 l-790 1 1 -1916z m1440 1485 c0
-1 17 -4 39 -6 43 -3 188 -44 196 -55 3 -3 15 -9 27 -13 65 -20 216 -153 250
-221 9 -16 21 -37 28 -45 14 -18 51 -112 47 -122 -1 -5 2 -8 7 -8 4 0 11 -19
15 -42 3 -24 9 -59 13 -78 16 -84 3 -320 -19 -347 -6 -7 -8 -13 -5 -13 9 0
-28 -100 -56 -153 -50 -92 -159 -212 -219 -239 -16 -7 -28 -17 -28 -21 0 -5
-4 -5 -10 -2 -5 3 -10 3 -10 -2 0 -4 -15 -14 -32 -21 -18 -7 -41 -18 -51 -23
-10 -5 -22 -7 -27 -4 -4 3 -10 1 -12 -4 -1 -5 -19 -12 -38 -14 -19 -3 -35 -6
-35 -7 0 -10 -147 -14 -575 -14 l-505 -1 0 723 c-1 559 2 725 11 730 11 6 989
8 989 2z"/>
</g>
</svg>
